<svg width="90" height="52" viewBox="0 0 90 52" fill="none" xmlns="http://www.w3.org/2000/svg">
<path d="M22.1622 51.7969V51.8281C22.0833 51.8482 22.0044 51.8593 21.9265 51.8593C21.7498 51.8593 21.573 51.7858 21.3963 51.6409C21.0428 51.37 20.8502 51.0791 20.8197 50.767C20.7913 50.455 20.7966 50.1529 20.8366 49.862V49.706C21.0133 48.208 21.2721 46.7501 21.6151 45.3323C21.9602 43.9168 22.3189 42.5236 22.6924 41.1504L22.7514 40.9007C23.088 39.6725 23.5551 38.1834 24.1527 36.4335C24.7524 34.6858 25.43 32.7922 26.1854 30.7536C26.9429 28.715 27.7277 26.6341 28.542 24.5119C29.3584 22.3875 30.1633 20.3155 30.9576 18.297C31.754 16.2796 32.4821 14.4216 33.1417 12.7241C33.8003 11.0277 34.3369 9.60659 34.7493 8.46192L35.7509 5.80921L35.9866 5.12262C36.0844 4.87296 36.1822 4.61883 36.2811 4.36025C36.379 4.09944 36.4674 3.83305 36.5463 3.56221C36.723 2.97705 36.8503 2.41419 36.9292 1.8725C36.9292 1.79002 36.9292 1.66519 36.9292 1.498C36.9292 1.33193 36.8503 1.20709 36.6936 1.1235C36.6346 1.10344 36.5652 1.09229 36.4874 1.09229C36.3106 1.09229 36.1381 1.15025 35.9697 1.26617C35.8035 1.37985 35.652 1.48797 35.5152 1.59162C35.4163 1.67522 35.3479 1.7276 35.309 1.74767C34.9555 1.99733 34.6062 2.26372 34.2611 2.54571C33.9182 2.82547 33.5804 3.11192 33.2469 3.40617L33.0113 3.62462C32.4979 4.1039 31.9992 4.60323 31.5173 5.12262C31.0376 5.64314 30.5715 6.16365 30.1201 6.68304L30.0318 6.77667C29.7172 7.1311 29.2753 7.63601 28.7061 8.2925C28.1359 8.94676 27.4878 9.68573 26.7619 10.5083C26.0349 11.3286 25.289 12.1824 24.5231 13.0674C23.7571 13.9535 23.0186 14.8084 22.3095 15.6309C21.6025 16.4513 20.9639 17.1902 20.3947 17.8467C19.8245 18.501 19.3931 19.0048 19.0985 19.3581C18.4504 20.1283 17.8024 20.8984 17.1543 21.6675C16.5062 22.4377 15.8581 23.209 15.21 23.9814C14.9744 24.2522 14.7187 24.5119 14.4441 24.7616C14.1685 25.0112 13.9033 25.2509 13.6487 25.4794C13.4099 25.6666 13.2026 25.8338 13.0259 25.9787C12.7902 26.2083 12.544 26.322 12.2894 26.322C12.1316 26.322 11.9654 26.2707 11.7886 26.166C11.3562 25.8751 11.17 25.3757 11.2289 24.668C11.3068 24.065 11.3899 23.4553 11.4772 22.84C11.5667 22.2248 11.6603 21.6263 11.7592 21.0433L11.877 20.4504C11.9159 20.1383 11.9654 19.8374 12.0243 19.5453C12.0832 19.2544 12.1421 18.9524 12.2011 18.6403C12.3378 17.8501 12.4757 17.0442 12.6135 16.2239C12.7503 15.4013 12.8386 14.5631 12.8786 13.7094C12.8975 13.2279 12.8681 12.7798 12.7902 12.363C12.7503 12.2181 12.7155 12.0888 12.685 11.9751C12.6566 11.8592 12.6229 11.7388 12.584 11.614C12.4851 11.4267 12.3484 11.3331 12.1716 11.3331C11.9749 11.3331 11.7687 11.4267 11.553 11.614C11.3363 11.8012 11.1248 12.0096 10.9175 12.2381C10.7124 12.4677 10.5609 12.655 10.463 12.7999C9.12688 14.5509 7.95275 16.4312 6.94065 18.4397C5.93065 20.4459 4.97325 22.46 4.07056 24.4807C3.99166 24.6479 3.86856 24.9076 3.70023 25.2609C3.5319 25.6154 3.35936 25.9787 3.18261 26.3532C3.00586 26.7277 2.85856 27.0509 2.74073 27.3207C2.6229 27.5915 2.56398 27.7264 2.56398 27.7264C2.30832 28.2681 2.05688 28.8031 1.81069 29.3314C1.56661 29.863 1.31621 30.3991 1.06161 30.9408C1.02163 30.9821 0.996377 31.0233 0.985856 31.0657C0.977439 31.1069 0.96271 31.1481 0.943773 31.1905C0.884856 31.3153 0.825939 31.4402 0.767023 31.565C0.708106 31.6898 0.6292 31.7835 0.531356 31.8459C0.472439 31.8871 0.413523 31.9083 0.354606 31.9083C0.236773 31.9083 0.137877 31.8247 0.0600227 31.6586C0.00110604 31.5338 -0.0146753 31.3978 0.013731 31.2529C0.0442414 31.1069 0.089481 30.972 0.148398 30.8472C0.187325 30.7636 0.216783 30.7012 0.236773 30.66C0.825939 28.8499 1.49296 26.9718 2.23994 25.0246C2.98587 23.0786 3.84016 21.137 4.80281 19.202C5.76757 17.2671 6.87857 15.3946 8.13581 13.5845C8.97958 12.354 9.82441 11.4267 10.6692 10.8025C11.1006 10.5116 11.4941 10.3656 11.8476 10.3656C12.1222 10.3656 12.3873 10.4392 12.6429 10.5841C13.0354 10.8137 13.271 11.1102 13.3499 11.4757C13.4309 11.8391 13.472 12.2281 13.472 12.6438C13.472 13.4374 13.4267 14.1987 13.3373 14.9265C13.2468 15.6554 13.1627 16.3309 13.0848 16.955C12.967 17.6216 12.8491 18.2825 12.7313 18.939C12.6135 19.5933 12.4956 20.2531 12.3778 20.9185C12.2989 21.2729 12.2242 21.6218 12.1548 21.9662C12.0874 22.3084 12.0243 22.6561 11.9654 23.0095L11.9359 23.1655C11.9159 23.3327 11.8907 23.4999 11.8602 23.6693C11.8318 23.8365 11.8181 24.0026 11.8181 24.1686C11.7981 24.4395 11.7929 24.6891 11.8013 24.9176C11.8118 25.1472 11.8865 25.3133 12.0243 25.417L12.0538 25.4482L12.2011 25.5106C12.3189 25.5106 12.4409 25.4649 12.5672 25.3724C12.6955 25.2776 12.8197 25.1784 12.9375 25.0737L13.0259 24.98C13.5583 24.5431 14.1001 24.0215 14.6503 23.4152C14.9638 23.0407 15.2689 22.6662 15.5635 22.2917C15.8581 21.9172 16.1422 21.5326 16.4178 21.137C16.5946 20.9296 16.7608 20.7168 16.9186 20.4994C17.0754 20.2798 17.2426 20.0658 17.4194 19.8574C17.9886 19.1296 18.6861 18.2658 19.5109 17.2671C20.3358 16.2685 21.229 15.2018 22.1916 14.066C23.1564 12.9314 24.1496 11.7811 25.1711 10.6153C26.1917 9.45055 27.1932 8.32705 28.1759 7.24479C29.1575 6.16365 30.0802 5.17501 30.945 4.28C31.8087 3.38276 32.5568 2.65271 33.188 2.09096C33.6004 1.71646 34.0265 1.35868 34.4674 1.0165C34.9103 0.672094 35.3974 0.385646 35.9276 0.156042C36.1633 0.0523855 36.3695 0 36.5463 0C36.8409 0 37.1154 0.114802 37.3711 0.343292C37.8224 0.717792 38.0287 1.22827 37.9897 1.8725C37.9497 2.49667 37.8561 3.08071 37.7078 3.62462C37.5615 4.16631 37.41 4.6545 37.2533 5.09142C36.8009 6.40217 36.3295 7.70846 35.8393 9.01029C35.3479 10.3099 34.8671 11.5939 34.3958 12.8623C34.1012 13.6358 33.693 14.6668 33.1712 15.9564C32.6494 17.2471 32.0581 18.6982 31.3995 20.3122C30.743 21.9239 30.0707 23.5935 29.3837 25.3233C28.6956 27.0509 28.0328 28.7295 27.3931 30.3612C26.7556 31.9952 26.1959 33.4743 25.714 34.7973C25.2343 36.1192 24.8766 37.187 24.6409 37.9984L24.2285 39.3715C23.7761 40.9944 23.3289 42.6373 22.886 44.3025C22.442 45.9699 22.1033 47.6774 21.8676 49.4251C21.8476 49.4875 21.8318 49.5432 21.8213 49.5945C21.8129 49.648 21.7982 49.706 21.7792 49.7684C21.7203 49.9969 21.6951 50.251 21.7035 50.5308C21.714 50.8127 21.8971 51.1103 22.2506 51.4224C22.3284 51.4637 22.3684 51.516 22.3684 51.5785C22.3684 51.6821 22.299 51.7546 22.1622 51.7969Z" fill="#E6C068"/>
<path d="M35.3922 19.2645C35.6668 19.4317 35.7794 19.6078 35.7289 19.795C35.6805 19.9823 35.6374 20.1495 35.5984 20.2943C35.3228 21.2518 35.0135 22.2003 34.6684 23.1388C34.3254 24.075 33.9877 25.0224 33.6542 25.9787C33.3985 26.7277 33.1534 27.4355 32.9177 28.1009C32.7021 28.6626 32.4864 29.2177 32.2697 29.7683C32.054 30.3211 31.8383 30.8784 31.6216 31.4402C30.8557 33.2525 30.0455 35.0481 29.1892 36.8258C28.3338 38.6058 27.327 40.2766 26.1676 41.837C25.9519 42.1279 25.7162 42.4088 25.4606 42.6796C25.206 42.9494 24.9114 43.1678 24.5768 43.335C23.8309 43.6883 23.3396 43.3763 23.1039 42.3988C23.026 42.0243 23.0313 41.6743 23.1207 41.3511C23.2081 41.0301 23.3101 40.7135 23.4279 40.4014C23.9582 39.0483 24.6221 37.8 25.4185 36.6564C26.2128 35.5118 27.0924 34.4496 28.0571 33.4687C29.0398 32.5113 29.8109 31.4134 30.3717 30.174C30.9304 28.9379 31.4448 27.6751 31.9162 26.3844C32.2896 25.4069 32.6526 24.4295 33.0061 23.4508C33.3596 22.47 33.7131 21.4914 34.0666 20.5128C34.1445 20.3467 34.2181 20.1907 34.2854 20.0447C34.3549 19.8998 34.439 19.7538 34.5379 19.6078C34.6158 19.4417 34.7242 19.3124 34.862 19.2199C34.9988 19.1251 35.1755 19.1396 35.3922 19.2645ZM26.7567 38.5289C27.1302 37.8 27.4753 37.051 27.792 36.2819C28.1066 35.5118 28.4211 34.7405 28.7347 33.9681C28.6757 34.1163 28.5579 34.2578 28.3812 34.3916C28.2044 34.5276 28.0571 34.6591 27.9393 34.7839C27.7994 34.9288 27.6605 35.0748 27.5227 35.2208C27.3859 35.3657 27.2575 35.5218 27.1397 35.689C26.8651 35.9799 26.6 36.2864 26.3443 36.6074C26.0897 36.9306 25.8435 37.2695 25.6079 37.6239C25.3922 37.956 25.1765 38.2938 24.9598 38.6359C24.7441 38.9803 24.5579 39.3404 24.4001 39.7148C24.3022 39.9433 24.2002 40.1718 24.0929 40.4014C23.9834 40.6299 23.8993 40.8696 23.8404 41.1192C23.8014 41.3065 23.8172 41.545 23.8867 41.837C23.954 42.1279 24.1255 42.2215 24.4001 42.1179C24.7146 41.9931 24.9461 41.7746 25.0944 41.4625C25.2407 41.1504 25.3922 40.8584 25.5489 40.5887C25.7457 40.2342 25.9519 39.891 26.1676 39.5588C26.3843 39.2255 26.58 38.8823 26.7567 38.5289ZM36.6295 16.4869C36.7473 16.8826 36.761 17.2047 36.6716 17.4544C36.5842 17.7041 36.3538 17.8501 35.9814 17.8913C35.6668 17.9125 35.4017 17.8189 35.186 17.6104C34.9693 17.4031 34.822 17.1423 34.7442 16.8302C34.6453 16.4145 34.6652 16.0712 34.8031 15.8003C34.9398 15.5306 35.205 15.3746 35.5984 15.3322C35.9909 15.3122 36.2402 15.437 36.3475 15.7067C36.4569 15.9776 36.5506 16.2373 36.6295 16.4869Z" fill="#E6C068"/>
<path d="M47.0042 23.9814C47.0632 24.0238 47.0926 24.1174 47.0926 24.2623C47.0926 24.4083 47.0085 24.5432 46.8401 24.668C46.6739 24.7928 46.5424 24.8976 46.4445 24.9801C46.11 25.2922 45.767 25.5942 45.4135 25.8851C45.06 26.1771 44.7065 26.458 44.353 26.7277C43.606 27.2895 42.8148 27.7888 41.9795 28.2257C41.1431 28.6627 40.2541 29.006 39.3114 29.2556C38.9179 29.3805 38.5055 29.4429 38.0742 29.4429C37.6418 29.4429 37.2093 29.2344 36.778 28.8187C36.3466 28.4241 36.1068 28.0028 36.0584 27.557C36.0079 27.1089 36.0415 26.6765 36.1594 26.2596C36.5129 24.8452 37.0137 23.5244 37.6617 22.2962C38.3098 21.0657 39.0852 19.931 39.989 18.89C40.0868 18.7451 40.2088 18.6091 40.3551 18.4843C40.5034 18.3595 40.7054 18.4018 40.9611 18.6091C41.2357 18.8387 41.324 19.0416 41.2262 19.2199C41.1273 19.396 41.0389 19.5565 40.9611 19.7014C40.3319 20.7625 39.7238 21.8258 39.1347 22.8891C38.5455 23.9502 38.0247 25.0637 37.5734 26.2284C37.4945 26.4368 37.3966 26.6553 37.2788 26.8838C37.161 27.1134 37.102 27.3475 37.102 27.5882C37.102 27.8267 37.2093 28.0597 37.4261 28.2882C37.7796 28.6838 38.172 28.8499 38.6044 28.7875C39.0358 28.7251 39.4387 28.6526 39.8122 28.569C40.5581 28.3818 41.2557 28.1009 41.9037 27.7264C42.5539 27.3519 43.1747 26.9362 43.7638 26.4781C43.8417 26.4157 44.0384 26.2396 44.353 25.9475C44.6665 25.6566 45.0105 25.3446 45.384 25.0113C45.7565 24.6791 46.1005 24.4083 46.4151 24.1999C46.7286 23.9926 46.9253 23.919 47.0042 23.9814ZM42.2615 17.1423C41.807 17.1847 41.5208 16.9662 41.403 16.487C41.3041 16.0712 41.344 15.7759 41.5208 15.5997C41.6996 15.4214 41.9563 15.3222 42.2909 15.301C42.5266 15.281 42.7328 15.3322 42.9095 15.4571C43.0863 15.5819 43.2136 15.8115 43.2925 16.1437C43.3114 16.4769 43.2231 16.7166 43.0274 16.8615C42.8306 17.0075 42.575 17.1011 42.2615 17.1423Z" fill="#E6C068"/>
<path d="M37 36.7909C37 36.0185 37.2483 35.3598 37.7449 34.8159C38.2436 34.272 38.8369 34 39.525 34C39.7354 34 39.9343 34.0424 40.1226 34.1248C40.313 34.2051 40.4519 34.2809 40.5392 34.3522C40.6255 34.4235 40.7328 34.5261 40.859 34.6598L41.2252 34.0936C41.2609 34.0312 41.2988 34 41.3388 34C41.3777 34 41.3998 34.0123 41.4061 34.0357C41.4145 34.0602 41.4187 34.1092 41.4187 34.1828V36.0063C41.4187 36.0898 41.4124 36.1422 41.4019 36.1623C41.3935 36.1835 41.3598 36.1935 41.3009 36.1935C41.2557 36.1935 41.2273 36.1868 41.2168 36.1712C41.2052 36.1567 41.1957 36.1199 41.1873 36.0598C41.1115 35.5069 40.9285 35.0655 40.6402 34.7356C40.3509 34.4057 40.0058 34.2408 39.605 34.2408C39.4892 34.2408 39.3672 34.2541 39.2388 34.2809C39.1094 34.3076 38.9527 34.3745 38.7675 34.4815C38.5823 34.5863 38.4182 34.7256 38.2751 34.9006C38.132 35.0733 38.0079 35.3241 37.9048 35.654C37.8006 35.984 37.7491 36.3663 37.7491 36.7998C37.7491 37.2312 37.8006 37.6113 37.9048 37.9412C38.0079 38.2711 38.132 38.523 38.2751 38.6946C38.4182 38.8674 38.5823 39.0056 38.7675 39.1093C38.9527 39.214 39.1094 39.2809 39.2388 39.3099C39.3703 39.34 39.4955 39.3545 39.6134 39.3545C40.0279 39.3545 40.394 39.1984 40.7118 38.8863C41.0316 38.572 41.2062 38.1507 41.2378 37.6246C41.2431 37.5979 41.2462 37.58 41.2462 37.5711C41.2462 37.56 41.2473 37.5477 41.2504 37.5355C41.2557 37.521 41.2641 37.5121 41.2757 37.5087C41.2893 37.5031 41.3051 37.4998 41.322 37.4998C41.3861 37.4998 41.4187 37.5433 41.4187 37.6291C41.4187 38.1173 41.242 38.5653 40.8885 38.9755C40.535 39.3857 40.0805 39.5908 39.525 39.5908C38.8348 39.5908 38.2415 39.321 37.7449 38.7793C37.2483 38.2388 37 37.5756 37 36.7909Z" fill="#E6C068"/>
<path d="M44.6406 39.2519V39.0156H44.8174C45.0783 39.0156 45.2382 38.9933 45.2971 38.9488C45.3581 38.9019 45.3897 38.8016 45.3897 38.65V34.5974C45.3897 34.4525 45.3581 34.3567 45.2971 34.3121C45.2351 34.2653 45.0751 34.2408 44.8174 34.2408H44.6406V34C44.8111 34.0156 45.1793 34.0223 45.7432 34.0223C46.3829 34.0223 46.789 34.0156 46.9636 34V34.2408H46.7238C46.5018 34.2408 46.3387 34.2564 46.2356 34.2853C46.1346 34.3154 46.0757 34.3511 46.0588 34.3923C46.042 34.4347 46.0336 34.506 46.0336 34.6063V38.708C46.0336 38.8418 46.0515 38.9265 46.0883 38.9621C46.1241 38.9978 46.2251 39.0156 46.3913 39.0156H46.9847C47.2309 39.0156 47.4434 38.9777 47.6201 38.8997C47.7969 38.8228 47.9315 38.7348 48.0241 38.6367C48.1188 38.5386 48.1977 38.3981 48.2598 38.2131C48.324 38.0292 48.3661 37.8788 48.386 37.7628C48.405 37.6447 48.425 37.4797 48.445 37.268H48.6259L48.4239 39.2519H44.6406Z" fill="#E6C068"/>
<path d="M51.7432 39.506V39.2698C52.1724 39.2608 52.4417 39.0892 52.5512 38.7526L54.0577 34.156C54.0746 34.0936 54.0935 34.0524 54.1167 34.0312C54.1388 34.0111 54.1766 34 54.2303 34C54.2576 34 54.2808 34.0033 54.2976 34.0089C54.3166 34.0156 54.3323 34.0268 54.3439 34.0446C54.3544 34.0602 54.3618 34.0736 54.365 34.0847C54.3702 34.0936 54.3797 34.1181 54.3944 34.156L55.9641 38.9621C55.9999 39.0903 56.0578 39.1739 56.1367 39.2118C56.2145 39.2508 56.3639 39.2698 56.5827 39.2698H56.709V39.506C56.406 39.4916 56.0904 39.4838 55.7621 39.4838C55.2403 39.4838 54.891 39.4916 54.7142 39.506V39.2698C55.1151 39.2698 55.316 39.1928 55.316 39.0379C55.316 39.0268 55.3087 38.9889 55.295 38.9265L54.912 37.7539H53.1193L52.7826 38.757C52.7742 38.7782 52.77 38.8172 52.77 38.873C52.77 38.9833 52.8163 39.0769 52.9089 39.1538C53.0036 39.2319 53.1403 39.2698 53.3171 39.2698V39.506C52.851 39.4916 52.5722 39.4838 52.4796 39.4838C52.3197 39.4838 52.0735 39.4916 51.7432 39.506ZM53.1992 37.5176H54.8321L54.0115 35.0165L53.1992 37.5176Z" fill="#E6C068"/>
<path d="M59.9302 39.408V37.8654C59.9302 37.8096 59.9312 37.7706 59.9344 37.7495C59.9365 37.7294 59.9449 37.7116 59.9596 37.696C59.9733 37.6815 59.9944 37.6737 60.0228 37.6737C60.0754 37.6737 60.1048 37.7004 60.1111 37.7539C60.1248 38.2622 60.2753 38.6567 60.5614 38.9354C60.8413 39.2151 61.2232 39.3545 61.7061 39.3545C61.9944 39.3545 62.229 39.2452 62.4089 39.0245C62.5877 38.8016 62.6782 38.5453 62.6782 38.2533C62.6782 37.9768 62.6035 37.7405 62.4552 37.5444C62.3899 37.4552 62.3174 37.3828 62.2363 37.3259C62.1574 37.2702 62.0943 37.2345 62.047 37.2189C61.9986 37.2011 61.9291 37.1788 61.8366 37.152C61.2358 37.0005 60.917 36.9158 60.8813 36.8979C60.5951 36.7943 60.3647 36.6126 60.1911 36.354C60.0164 36.0954 59.9302 35.8079 59.9302 35.4891C59.9302 35.0789 60.0659 34.7289 60.3384 34.4369C60.6098 34.146 60.9454 34 61.3442 34C61.543 34 61.725 34.0334 61.8913 34.0981C62.0564 34.1638 62.1732 34.2274 62.2406 34.2898C62.31 34.35 62.3984 34.4325 62.5057 34.5395L62.7582 34.0981C62.7939 34.0334 62.8308 34 62.8676 34C62.9065 34 62.9286 34.0123 62.9349 34.0357C62.9433 34.0602 62.9476 34.1092 62.9476 34.1828V35.7298C62.9476 35.7867 62.9454 35.8257 62.9433 35.8458C62.9433 35.8669 62.9349 35.8836 62.9181 35.8948C62.9034 35.9071 62.8823 35.9126 62.855 35.9126C62.8066 35.9126 62.7771 35.8836 62.7666 35.8235C62.6319 34.7535 62.1606 34.2185 61.3526 34.2185C61.0748 34.2185 60.8444 34.3165 60.6624 34.5127C60.4825 34.7089 60.3931 34.9452 60.3931 35.2216C60.3931 35.4478 60.4583 35.6529 60.5909 35.8368C60.7256 36.0219 60.9044 36.1422 61.1296 36.198L62.0554 36.4343C62.3668 36.5123 62.6256 36.6962 62.8339 36.9871C63.0412 37.2791 63.1453 37.6135 63.1453 37.9902C63.1453 38.4271 63.0107 38.8039 62.7413 39.1182C62.4741 39.4325 62.1322 39.5908 61.7145 39.5908C61.4136 39.5908 61.1474 39.5373 60.9149 39.4303C60.6814 39.3266 60.5036 39.2006 60.3805 39.0513C60.2816 39.2241 60.2016 39.3578 60.1406 39.4525L60.1196 39.4882C60.0796 39.5562 60.0417 39.5908 60.0059 39.5908C59.9691 39.5908 59.947 39.5774 59.9386 39.5506C59.9323 39.5261 59.9302 39.4793 59.9302 39.408Z" fill="#E6C068"/>
<path d="M66.5269 39.408V37.8654C66.5269 37.8096 66.5279 37.7706 66.5311 37.7495C66.5332 37.7294 66.5416 37.7116 66.5563 37.696C66.57 37.6815 66.591 37.6737 66.6194 37.6737C66.672 37.6737 66.7015 37.7004 66.7078 37.7539C66.7215 38.2622 66.8719 38.6567 67.1581 38.9354C67.438 39.2151 67.8199 39.3545 68.3028 39.3545C68.591 39.3545 68.8257 39.2452 69.0056 39.0245C69.1844 38.8016 69.2749 38.5453 69.2749 38.2533C69.2749 37.9768 69.2002 37.7405 69.0519 37.5444C68.9866 37.4552 68.914 37.3828 68.833 37.3259C68.7541 37.2702 68.691 37.2345 68.6436 37.2189C68.5953 37.2011 68.5258 37.1788 68.4332 37.152C67.8325 37.0005 67.5137 36.9158 67.4779 36.8979C67.1918 36.7943 66.9614 36.6126 66.7878 36.354C66.6131 36.0954 66.5269 35.8079 66.5269 35.4891C66.5269 35.0789 66.6626 34.7289 66.9351 34.4369C67.2065 34.146 67.5421 34 67.9409 34C68.1397 34 68.3217 34.0334 68.4879 34.0981C68.6531 34.1638 68.7699 34.2274 68.8372 34.2898C68.9067 34.35 68.995 34.4325 69.1024 34.5395L69.3549 34.0981C69.3906 34.0334 69.4274 34 69.4643 34C69.5032 34 69.5253 34.0123 69.5316 34.0357C69.54 34.0602 69.5442 34.1092 69.5442 34.1828V35.7298C69.5442 35.7867 69.5421 35.8257 69.54 35.8458C69.54 35.8669 69.5316 35.8836 69.5148 35.8948C69.5 35.9071 69.479 35.9126 69.4516 35.9126C69.4033 35.9126 69.3738 35.8836 69.3633 35.8235C69.2286 34.7535 68.7573 34.2185 67.9493 34.2185C67.6715 34.2185 67.4411 34.3165 67.2591 34.5127C67.0792 34.7089 66.9898 34.9452 66.9898 35.2216C66.9898 35.4478 67.055 35.6529 67.1876 35.8368C67.3222 36.0219 67.5011 36.1422 67.7262 36.198L68.6521 36.4343C68.9635 36.5123 69.2223 36.6962 69.4306 36.9871C69.6379 37.2791 69.742 37.6135 69.742 37.9902C69.742 38.4271 69.6074 38.8039 69.338 39.1182C69.0708 39.4325 68.7289 39.5908 68.3112 39.5908C68.0103 39.5908 67.7441 39.5373 67.5116 39.4303C67.278 39.3266 67.1002 39.2006 66.9771 39.0513C66.8783 39.2241 66.7983 39.3578 66.7373 39.4525L66.7162 39.4882C66.6763 39.5562 66.6384 39.5908 66.6026 39.5908C66.5658 39.5908 66.5437 39.5774 66.5353 39.5506C66.529 39.5261 66.5269 39.4793 66.5269 39.408Z" fill="#E6C068"/>
<path d="M72.9175 39.2519V39.0156H73.1069C73.3783 39.0156 73.5456 38.9933 73.6076 38.9488C73.6718 38.9019 73.7044 38.8016 73.7044 38.65V34.5974C73.7044 34.4525 73.6718 34.3567 73.6076 34.3121C73.5456 34.2653 73.3783 34.2408 73.1069 34.2408H72.9175V34C73.0879 34.0156 73.4583 34.0223 74.0285 34.0223C74.5977 34.0223 74.9648 34.0156 75.1311 34V34.2408H74.9459C74.6734 34.2408 74.5051 34.2653 74.4409 34.3121C74.3788 34.3567 74.3483 34.4525 74.3483 34.5974V38.65C74.3483 38.7994 74.3788 38.8975 74.4409 38.9443C74.5051 38.9922 74.6734 39.0156 74.9459 39.0156H75.1311V39.2519C74.9627 39.2374 74.5934 39.2296 74.0243 39.2296C73.4572 39.2296 73.0879 39.2374 72.9175 39.2519Z" fill="#E6C068"/>
<path d="M78.2729 36.7909C78.2729 36.0185 78.5212 35.3598 79.0178 34.8159C79.5165 34.272 80.1099 34 80.7979 34C81.0084 34 81.2072 34.0424 81.3955 34.1248C81.586 34.2051 81.7248 34.2809 81.8122 34.3522C81.8984 34.4235 82.0057 34.5261 82.132 34.6598L82.4981 34.0936C82.5339 34.0312 82.5718 34 82.6117 34C82.6507 34 82.6728 34.0123 82.6791 34.0357C82.6875 34.0602 82.6917 34.1092 82.6917 34.1828V36.0063C82.6917 36.0898 82.6854 36.1422 82.6749 36.1623C82.6664 36.1835 82.6328 36.1935 82.5739 36.1935C82.5286 36.1935 82.5002 36.1868 82.4897 36.1712C82.4781 36.1567 82.4687 36.1199 82.4602 36.0598C82.3845 35.5069 82.2014 35.0655 81.9132 34.7356C81.6238 34.4057 81.2788 34.2408 80.8779 34.2408C80.7622 34.2408 80.6401 34.2541 80.5118 34.2809C80.3824 34.3076 80.2256 34.3745 80.0404 34.4815C79.8553 34.5863 79.6912 34.7256 79.5481 34.9006C79.405 35.0733 79.2808 35.3241 79.1777 35.654C79.0736 35.984 79.022 36.3663 79.022 36.7998C79.022 37.2312 79.0736 37.6113 79.1777 37.9412C79.2808 38.2711 79.405 38.523 79.5481 38.6946C79.6912 38.8674 79.8553 39.0056 80.0404 39.1093C80.2256 39.214 80.3824 39.2809 80.5118 39.3099C80.6433 39.34 80.7685 39.3545 80.8863 39.3545C81.3008 39.3545 81.667 39.1984 81.9847 38.8863C82.3045 38.572 82.4792 38.1507 82.5107 37.6246C82.516 37.5979 82.5192 37.58 82.5192 37.5711C82.5192 37.56 82.5202 37.5477 82.5234 37.5355C82.5286 37.521 82.537 37.5121 82.5486 37.5087C82.5623 37.5031 82.5781 37.4998 82.5949 37.4998C82.6591 37.4998 82.6917 37.5433 82.6917 37.6291C82.6917 38.1173 82.5149 38.5653 82.1614 38.9755C81.8079 39.3857 81.3534 39.5908 80.7979 39.5908C80.1078 39.5908 79.5144 39.321 79.0178 38.7793C78.5212 38.2388 78.2729 37.5756 78.2729 36.7909Z" fill="#E6C068"/>
<path d="M86.2729 39.408V37.8654C86.2729 37.8096 86.274 37.7706 86.2772 37.7495C86.2793 37.7294 86.2877 37.7116 86.3024 37.696C86.3161 37.6815 86.3371 37.6737 86.3655 37.6737C86.4181 37.6737 86.4476 37.7004 86.4539 37.7539C86.4676 38.2622 86.618 38.6567 86.9042 38.9354C87.1841 39.2151 87.566 39.3545 88.0489 39.3545C88.3371 39.3545 88.5718 39.2452 88.7517 39.0245C88.9305 38.8016 89.021 38.5453 89.021 38.2533C89.021 37.9768 88.9463 37.7405 88.7979 37.5444C88.7327 37.4552 88.6601 37.3828 88.5791 37.3259C88.5002 37.2702 88.4371 37.2345 88.3897 37.2189C88.3413 37.2011 88.2719 37.1788 88.1793 37.152C87.5786 37.0005 87.2598 36.9158 87.224 36.8979C86.9379 36.7943 86.7075 36.6126 86.5339 36.354C86.3592 36.0954 86.2729 35.8079 86.2729 35.4891C86.2729 35.0789 86.4087 34.7289 86.6812 34.4369C86.9526 34.146 87.2882 34 87.6869 34C87.8858 34 88.0678 34.0334 88.234 34.0981C88.3992 34.1638 88.516 34.2274 88.5833 34.2898C88.6528 34.35 88.7411 34.4325 88.8484 34.5395L89.1009 34.0981C89.1367 34.0334 89.1735 34 89.2104 34C89.2493 34 89.2714 34.0123 89.2777 34.0357C89.2861 34.0602 89.2903 34.1092 89.2903 34.1828V35.7298C89.2903 35.7867 89.2882 35.8257 89.2861 35.8458C89.2861 35.8669 89.2777 35.8836 89.2609 35.8948C89.2461 35.9071 89.2251 35.9126 89.1977 35.9126C89.1493 35.9126 89.1199 35.8836 89.1094 35.8235C88.9747 34.7535 88.5034 34.2185 87.6954 34.2185C87.4176 34.2185 87.1872 34.3165 87.0052 34.5127C86.8253 34.7089 86.7359 34.9452 86.7359 35.2216C86.7359 35.4478 86.8011 35.6529 86.9337 35.8368C87.0683 36.0219 87.2472 36.1422 87.4723 36.198L88.3982 36.4343C88.7096 36.5123 88.9684 36.6962 89.1767 36.9871C89.384 37.2791 89.4881 37.6135 89.4881 37.9902C89.4881 38.4271 89.3534 38.8039 89.0841 39.1182C88.8169 39.4325 88.475 39.5908 88.0573 39.5908C87.7564 39.5908 87.4902 39.5373 87.2577 39.4303C87.0241 39.3266 86.8463 39.2006 86.7232 39.0513C86.6243 39.2241 86.5444 39.3578 86.4834 39.4525L86.4623 39.4882C86.4223 39.5562 86.3845 39.5908 86.3487 39.5908C86.3119 39.5908 86.2898 39.5774 86.2814 39.5506C86.2751 39.5261 86.2729 39.4793 86.2729 39.408Z" fill="#E6C068"/>
</svg>
